<svg width="40" height="19" viewBox="0 0 40 19" fill="none" xmlns="http://www.w3.org/2000/svg">
<path fill-rule="evenodd" clip-rule="evenodd" d="M4.53232 7.00242C4.18999 7.39117 4.00763 7.96227 4.00763 8.6733C4.00763 9.46387 4.37992 10.2314 5.16637 11.1381C5.95656 12.0491 7.09724 13.0257 8.52335 14.2451L9.00122 14.6553L9.47624 14.2506C9.4761 14.2508 9.47638 14.2505 9.47624 14.2506C10.9023 13.0287 12.0433 12.0505 12.8335 11.1389C13.6201 10.2315 13.9924 9.46389 13.9924 8.6733C13.9924 7.9705 13.8005 7.39926 13.4461 7.00754C13.0975 6.62203 12.5332 6.34592 11.6583 6.34592C10.7606 6.34592 9.97225 7.05558 9.36754 7.72519L9 8.13217L8.63246 7.72519C8.34894 7.41124 7.98437 7.05922 7.57215 6.78835C7.15828 6.5164 6.72654 6.34592 6.29897 6.34592C5.4172 6.34592 4.8672 6.62213 4.53232 7.00242ZM3.78864 6.29656C4.35739 5.65069 5.20496 5.2998 6.29897 5.2998C6.98278 5.2998 7.602 5.56992 8.11104 5.90442C8.44366 6.12298 8.74217 6.37748 8.99709 6.62494C9.61688 6.00775 10.5311 5.2998 11.6583 5.2998C12.7465 5.2998 13.6012 5.65078 14.1807 6.29144C14.7545 6.92587 15 7.77985 15 8.6733C15 9.84174 14.4379 10.8518 13.5825 11.8386C12.7406 12.8099 11.5495 13.8305 10.1657 15.0163L10.1177 15.0574L9.43625 15.6379C9.18216 15.8544 8.81597 15.8537 8.56266 15.6362L7.88275 15.0526L7.8485 15.0233C6.45868 13.835 5.26246 12.8121 4.4176 11.8381C3.56206 10.8518 3 9.84176 3 8.6733C3 7.78808 3.22734 6.93397 3.78864 6.29656Z" fill="#515151"/>
<path fill-rule="evenodd" clip-rule="evenodd" d="M26.5129 10.287C26.2474 10.287 26.0321 10.069 26.0321 9.80006V7.85216C26.0321 6.86602 26.8214 6.0666 27.7949 6.0666H34.2051C34.4707 6.0666 34.6859 6.28462 34.6859 6.55357C34.6859 6.82252 34.4707 7.04054 34.2051 7.04054H27.7949C27.3524 7.04054 26.9937 7.40392 26.9937 7.85216V9.80006C26.9937 10.069 26.7784 10.287 26.5129 10.287Z" fill="#595959"/>
<path d="M35.9231 6.39743C36.0256 6.47535 36.0256 6.63118 35.9231 6.7091L33.8718 8.26741C33.745 8.36372 33.5641 8.27209 33.5641 8.11158V4.99495C33.5641 4.83443 33.745 4.74281 33.8718 4.83912L35.9231 6.39743Z" fill="#595959"/>
<path fill-rule="evenodd" clip-rule="evenodd" d="M35.4871 9.31288C35.7526 9.31288 35.9679 9.53091 35.9679 9.79986V11.7478C35.9679 12.7339 35.1786 13.5333 34.2051 13.5333H27.7949C27.5293 13.5333 27.3141 13.3153 27.3141 13.0463C27.3141 12.7774 27.5293 12.5594 27.7949 12.5594H34.2051C34.6476 12.5594 35.0064 12.196 35.0064 11.7478V9.79986C35.0064 9.53091 35.2216 9.31288 35.4871 9.31288Z" fill="#595959"/>
<path d="M26.0769 13.2022C25.9744 13.1243 25.9744 12.9684 26.0769 12.8905L28.1282 11.3322C28.255 11.2359 28.4359 11.3275 28.4359 11.488V14.6047C28.4359 14.7652 28.255 14.8568 28.1282 14.7605L26.0769 13.2022Z" fill="#595959"/>
</svg>
